<?xml version="1.0" encoding="utf-8"?>
<!-- Generator: Adobe Illustrator 22.0.0, SVG Export Plug-In . SVG Version: 6.00 Build 0)  -->
<svg version="1.1" id="Layer_1" xmlns="http://www.w3.org/2000/svg" xmlns:xlink="http://www.w3.org/1999/xlink" x="0px" y="0px" viewBox="0 0 980 979.6" style="enable-background:new 0 0 980 979.6;" xml:space="preserve"><path d="M528.7,490L970.5,48.2c6-6,9.5-14.1,9.5-22.3c0-7.1-2.7-13.7-7.5-18.5S961.1-0.1,954-0.1c-8.1,0-16.2,3.5-22.2,9.5L490,451.3L48.2,9.5C42.2,3.5,34.1,0,26,0C18.9,0,12.3,2.7,7.5,7.5C2.7,12.2,0,18.8,0,26c0,8.1,3.5,16.1,9.5,22.2L451.3,490L9.5,931.8C3.7,937.6,0.4,945,0,952.7c-0.3,7.6,2.3,14.7,7.4,19.8c4.8,4.8,11.4,7.4,18.5,7.4c8.1,0,16.2-3.4,22.2-9.5L490,528.7l441.8,441.8c11.3,11.3,30.4,12.2,40.7,2c10.7-10.7,9.8-28.9-2-40.7L528.7,490z"/></svg>
